/* XPM */
static char *magick[] = {
/* columns rows colors chars-per-pixel */
"48 48 243 2",
"   c Gray0",
".  c #1b1917",
"X  c #161d2c",
"o  c #133716",
"O  c #143a17",
"+  c #1c2125",
"@  c #1b2537",
"#  c #211d17",
"$  c #21201b",
"%  c #292d23",
"&  c #2f2a21",
"*  c #2f3d2c",
"=  c #32302a",
"-  c #3c362a",
";  c #3e3c33",
":  c #3f3c35",
">  c #3e3e3e",
",  c #393939",
"<  c #1f2b42",
"1  c #222e45",
"2  c #273550",
"3  c #273650",
"4  c #283752",
"5  c #293853",
"6  c #293954",
"7  c #2a3855",
"8  c #2b3a56",
"9  c #2b3b58",
"0  c #2c3b59",
"q  c #2c3c59",
"w  c #2d3d5a",
"e  c #2d3e5b",
"r  c #154415",
"t  c #174917",
"y  c #1c521d",
"u  c #3c4033",
"i  c #394835",
"p  c #3b4c35",
"a  c #3d4f35",
"s  c #236d23",
"d  c #356c33",
"f  c #387938",
"g  c #2e4048",
"h  c #3a5256",
"j  c #304163",
"k  c #314262",
"l  c #314364",
"z  c #324365",
"x  c #40382d",
"c  c #473d32",
"v  c #424037",
"b  c #47443b",
"n  c #445f3b",
"m  c #455c3c",
"M  c #534b3b",
"N  c #78743a",
"B  c #4e5542",
"V  c #524f44",
"C  c #515151",
"Z  c #5f5f5f",
"A  c Gray36",
"S  c Gray28",
"D  c #4b5764",
"F  c #4c5b68",
"G  c #405175",
"H  c #546573",
"J  c #507063",
"K  c #665947",
"L  c #685c49",
"P  c #6a7a5b",
"I  c #766652",
"U  c #796954",
"Y  c #796b55",
"T  c #7d6d57",
"R  c #7f6e58",
"E  c #7e7059",
"W  c #626262",
"Q  c #676767",
"!  c Gray41",
"~  c #6f6f6f",
"^  c #6f6e74",
"/  c #7c7e69",
"(  c #727272",
")  c Gray46",
"_  c #777777",
"`  c Gray47",
"'  c Gray48",
"]  c #7c7c7c",
"[  c Gray",
"{  c #475a80",
"}  c #475b84",
"|  c #485c85",
" . c #4e6c86",
".. c #51668e",
"X. c #506e88",
"o. c #516690",
"O. c #53718b",
"+. c #547188",
"@. c #55738d",
"#. c #56748e",
"$. c #587690",
"%. c #5b7993",
"&. c #5d7b95",
"*. c #5e7b95",
"=. c #677c83",
"-. c #6f7e88",
";. c #637383",
":. c #63809a",
">. c #64819b",
",. c #6986a0",
"<. c #6a87a1",
"1. c #6f8ba5",
"2. c #778da1",
"3. c #7591ab",
"4. c #7a97b1",
"5. c #82715b",
"6. c #80705a",
"7. c #86755f",
"8. c #8e7c63",
"9. c #937f65",
"0. c #b08d27",
"q. c #b88e28",
"w. c #988850",
"e. c #848771",
"r. c #948269",
"t. c #908c67",
"y. c #9a866c",
"u. c #9d896e",
"i. c #9e8a70",
"p. c #a18b70",
"a. c #a49074",
"s. c #aa9478",
"d. c #ae987a",
"f. c #b59d7f",
"g. c #b5a25f",
"h. c #d59f1f",
"j. c #dec166",
"k. c #dec66e",
"l. c #e8c96b",
"z. c #898989",
"x. c #8d8d8d",
"c. c Gray56",
"v. c #838383",
"b. c #929292",
"n. c #959595",
"m. c #9b9b9b",
"M. c #989898",
"N. c #9d9d9d",
"B. c #9f9f9f",
"V. c #809cb6",
"C. c #86a2bc",
"Z. c #ad9b83",
"A. c #b69f81",
"S. c #bba184",
"D. c #bca485",
"F. c #bea586",
"G. c #bfa686",
"H. c #b7a895",
"J. c #beae9a",
"K. c #a9a9a9",
"L. c #aaaaaa",
"P. c #aeaeae",
"I. c #acacac",
"U. c #b6b6b6",
"Y. c #b1b1b1",
"T. c #b9b9b9",
"R. c #bbbbbb",
"E. c Gray75",
"W. c #bcbcbc",
"Q. c #8ca7c1",
"!. c #c5ab8b",
"~. c #c7ad8c",
"^. c #c2ac93",
"/. c #c3ae93",
"(. c #cab08f",
"). c #c4b199",
"_. c #c4b29c",
"`. c #ceb391",
"'. c #d0b592",
"]. c #d1b692",
"[. c #d7bb97",
"{. c #c5b5a2",
"}. c #c7b6a1",
"|. c #cebfac",
" X c #dfc29d",
".X c #dbc7ad",
"XX c #ddc8ad",
"oX c #d2c4b2",
"OX c #d4c5b1",
"+X c #d8c7b2",
"@X c #d8c8b4",
"#X c #d8cab8",
"$X c #e0c39e",
"%X c #e5cdae",
"&X c #e0ceb7",
"*X c #e7d1b5",
"=X c #e8d3b9",
"-X c #e9d5bb",
";X c #e9d5bd",
":X c #e9d6bd",
">X c #ead6bd",
",X c #c1c1c1",
"<X c #c3c3c3",
"1X c #c5c5c5",
"2X c Gray78",
"3X c #cbcbcb",
"4X c Gray80",
"5X c Gray81",
"6X c #d0d0d0",
"7X c #d2d2d2",
"8X c Gray83",
"9X c #d7d7d7",
"0X c Gray85",
"qX c Gray86",
"wX c #dddddd",
"eX c #dfdfdf",
"rX c #e4d5c2",
"tX c #ead7c0",
"yX c #ebd9c3",
"uX c #ebdac3",
"iX c #ebdac4",
"pX c #ecdbc5",
"aX c #eddcc7",
"sX c #edddc8",
"dX c #eddec9",
"fX c #eddeca",
"gX c Gray88",
"hX c #e2e2e2",
"jX c #e4e4e4",
"kX c #e6e6e6",
"lX c #e9e9e9",
"zX c #eaeaea",
"xX c Gray93",
"cX c #efefef",
"vX c #f1f1f1",
"bX c Gray95",
"nX c #f4f4f4",
"mX c Gray97",
"MX c #f8f8f8",
"NX c Gray98",
"BX c Gray99",
"VX c Gray100",
"CX c None",
/* pixels */
"CXCXCXCXCXCXCXCXCXCXCXCXCXCXCXCXCXCXCXCXCXCXCXCXCXCXCXCXCXCXCXCXCXCXCXCXCXCXCXCXCXCXCXCXCXCXCXCX",
"CXCXCXCXCXCXCXCXCXCXCXCXCXCXCXCXCXCXCXCXCXCXCXCXCXCXCXCXCXCXCXCXCXCXCXCXCXCXCXCXCXCXCXCXCXCXCXCX",
"CXCXCXCXCXCXCXCXCX                CXCXCXCXCXCXCXCXCXCXCXCXCXCXCXCXCXCXCXCXCXCXCXCXCXCXCXCXCXCXCX",
"CXCXCXCXCXCXCX                        CXCXCXCXCXCXCXCXCXCXCXCXCXCXCXCXCXCXCXCXCXCXCXCXCXCXCXCXCX",
"CXCXCXCXCXCX                            CXCXCXCXCXCXCXCXCXCXCXCXCXCXCXCXCXCXCXCXCXCXCXCXCXCXCXCX",
"CXCXCXCXCXCX                            CXCXCXCXCXCXCXCXCXCXCXCXCXCXCXCXCXCXCXCXCXCXCXCXCXCXCXCX",
"CXCXCXCXCX          H 2.;.F               CXCXCXCXCXCXCXCXCXCXCXCXCXCXCXCXCXCXCXCXCXCXCXCXCXCXCX",
"CXCXCXCXCX            D +                 CXCXCXCXCXCXCXCXCXCXCXCXCXCXCXCXCXCXCXCXCXCXCXCXCXCXCX",
"CXCXCXCXCX      E ~.~.                    CXCXCXCXCXCXCXCXCXCXCXCXCXCXCXCXCXCXCXCXCXCXCXCXCXCXCX",
"CXCXCXCXCX      U $X$X$XT                   CXCXCXCXCXCXCXCXCXCXCXCXCXCXCXCXCXCXCXCXCXCXCXCXCXCX",
"CXCXCXCXCX        # ~.$X$X8.                CXCXCXCXCXCXCXCXCXCXCXCXCXCXCXCXCXCXCXCXCXCXCXCXCXCX",
"CXCXCXCXCX      I $X$X  ~.$X$X-             CXCXCXCXCXCXCXCXCXCXCXCXCXCXCXCXCXCXCXCXCXCXCXCXCXCX",
"CXCXCXCX        5.$X$X$X$X$XL &             CXCXCX#X+X^.CXCXCXCXOX@X-XCXCXCXCXCXCXCXCXCXCXCXCXCX",
"CXCXCXCX        p.$Xu.$X$X~.5.            CXCX$X.X$X$X[.[.    pX[.$X'.$XCXCXCXCXCXCXCXCXCXCXCXCX",
"CXCXCXCX        U $X$X$X$X~.U                 S.$X$X$X$X(.    $X$X$X$X$X            CXCXCXCXCXCX",
"CXCXCX        ..2 M 9.$X X!.                  $X$X~.d.$X(.    $X}.D.$X$X                CXCXCXCX",
"CXCXCX      o.j j w K T R W ` ~ W W W W W W W $X&XpXuXD.(.W W :XaXsX!.(.` ` !             CXCXCX",
"CXCXCX      | l l l j j ! wXVXVXVXVXVXVXVXVXxXA.=XsXpXtXa.lXlX%XsXiX$XA.lXVX<X              CXCX",
"CXCXCX      | l l l j ` wXVXVXVXVXVXVXVXVXBXkXv.D.=X=X$Xr.hXhXs.=X%XA.[ wXbXbXb.            CXCX",
"CXCX        | w |.^.`.$XVXVX%.#.+.=. .O.$.*.lXN.a.(.$Xs.x.hXhXx.A.A.A.m.hXbXwXW.`.            CX",
"CXCX        | #X'.$X$X$X$X$X@.X.t.j.q./ *.:.mX7XC A.s.a.N.kXkXN.[ ` z.4XxXwX$X$X$XD.          CX",
"CXCX        | (.$X$X$X$XZ._.%X-.g.l.h.w.>.,.NXkXA ( , Q 8XbXbX8Xm.x.N.hXlX$XJ.!.$Xs.          CX",
"CXCX        | [.$X$X$X).rXpXaX=XP k.0.e.,.1.NXmX0XN.x.N.kXmXmXbXhXwXhXxX(.:XsXJ.$XA.          CX",
"CXCX        | (.$X$X$X}.uXpXtX*Xf d a p J 3.NXNXmX7X4XP.0XmXwXwXmX4XwXxXA.%XtXXXi.            CX",
"CXCXCX      { (.(.(.$X$X*X:X$X(.s m V ; p 4.NXmX1XW.W.W.W.R.L.R.mXL.R.L.! D.`.A.              CX",
"CXCXCX        G A.a.A.A.s.A.A.o t B b = ; 4.NXNXmXmXmXwXmXwXbXmXbX0XbX3Xz.` ) A               CX",
"CXCXCX        } w a.7.> [ [ g O r B : . % C.NXmXmXwXmXmXmXbXmX3XbXbXbXxXY.m.%X$X$X!.          CX",
"CXCXCX        | w 9 y.S n.b.h y t n v $ * Q.NXmXwXwX<XR.R.mXm.R.R.P.3XbXW.$XoXH.`.$Xx         CX",
"CXCXCX        | 0 8 8 ! lXkXlXmXNXNXNXNXNXmXmXmX4XmXL.mXbXmX3X0XbX0X0XbX<X(.uXpXf.(.c         CX",
"CXCXCX        | 8 8 5 ) VXVXNXNXNXNXNXNXmXmXmXmXmXbXmXmXmXbXbXbXbXbXbXbXhX(.(.$X(.            CX",
"CXCXCXCX      { 8 8 4 [ VXNXNXNXNXNXNXNXNXmXmXmXmXmXmXbXbXbXbXbXbXbXbXbX0Xz.(.(.              CX",
"CXCXCXCX      @ 1 < 2 [ VXNXW.NXhXNXmX1XmX7X4XwXmXmXwXmXbXbXR.R.R.U.U.U.L.[ ` A               CX",
"CXCXCXCX            X [ VXNXW.3XNXNXwX1XmXwXR.mXwX<XmXbXbXbXbXbXbXbX0XxX8X7Xn.)               CX",
"CXCXCXCX              [ VXNXhXNXNXwXNXwXmXmXwXmXbX4XwXbXbXbXbXbXbXW.U.U.8X8XwXP.              CX",
"CXCXCXCXCX            Q VXNXNXNXNXNXmXmXmXmXmXmXmXbXbXbXbXbXbXbXbXxXxXxXxXxXxXx.              CX",
"CXCXCXCXCXCX              x.W.W.W.W.W.W.W.W.W.W.W.W.W.W.W.W.W.W.W.W.W.W.W.W.x.                CX",
"CXCXCXCXCXCXCX                                                                                CX",
"CXCXCXCXCXCXCXCXCX                                                                            CX",
"CXCXCXCXCXCXCXCXCXCX                                                                        CXCX",
"CXCXCXCXCXCXCXCXCXCX                                                                        CXCX",
"CXCXCXCXCXCXCXCXCXCXCX                                                                    CXCXCX",
"CXCXCXCXCXCXCXCXCXCXCXCX                                                                CXCXCXCX",
"CXCXCXCXCXCXCXCXCXCXCXCXCXCX                                                        CXCXCXCXCXCX",
"CXCXCXCXCXCXCXCXCXCXCXCXCXCXCXCXCXCXCXCXCXCXCXCXCXCXCXCXCXCXCXCXCXCXCXCXCXCXCXCXCXCXCXCXCXCXCXCX",
"CXCXCXCXCXCXCXCXCXCXCXCXCXCXCXCXCXCXCXCXCXCXCXCXCXCXCXCXCXCXCXCXCXCXCXCXCXCXCXCXCXCXCXCXCXCXCXCX",
"CXCXCXCXCXCXCXCXCXCXCXCXCXCXCXCXCXCXCXCXCXCXCXCXCXCXCXCXCXCX^ N CXCXCXCXCXCXCXCXCXCXCXCXCXCXCXCX",
"CXCXCXCXCXCXCXCXCXCXCXCXCXCXCXCXCXCXCXCXCXCXCXCXCXCXCXCXCXCXCXCXCXCXCXCXCXCXCXCXCXCXCXCXCXCXCXCX",
"CXCXCXCXCXCXCXCXCXCXCXCXCXCXCXCXCXCXCXCXCXCXCXCXCXCXCXCXCXCXCXCXCXCXCXCXCXCXCXCXCXCXCXCXCXCXCXCX"
};
