/* XPM */
static char * host_list_xpm[] = {
"31 31 61 1",
" 	c None",
".	c #FFFFFF",
"+	c #7373AD",
"@	c #F7F7F7",
"#	c #4A4A5A",
"$	c #0000FF",
"%	c #9494B5",
"&	c #ADADAD",
"*	c #0000C6",
"=	c #0000F7",
"-	c #EFEFEF",
";	c #080829",
">	c #4242BD",
",	c #848484",
"'	c #000031",
")	c #00004A",
"!	c #000042",
"~	c #21215A",
"{	c #B5B5B5",
"]	c #BDBDBD",
"^	c #A5A5A5",
"/	c #8C8C8C",
"(	c #7B7B7B",
"_	c #949494",
":	c #CECECE",
"<	c #0808DE",
"[	c #00005A",
"}	c #3939BD",
"|	c #4A4A52",
"1	c #A5A5BD",
"2	c #000052",
"3	c #0000E7",
"4	c #0808EF",
"5	c #2121C6",
"6	c #DEDEDE",
"7	c #E7E7E7",
"8	c #636363",
"9	c #080810",
"0	c #080808",
"a	c #212121",
"b	c #7373A5",
"c	c #525263",
"d	c #0000B5",
"e	c #0000EF",
"f	c #101039",
"g	c #4A4AB5",
"h	c #000021",
"i	c #000039",
"j	c #8484D6",
"k	c #737373",
"l	c #6B6B6B",
"m	c #1010D6",
"n	c #D6D6D6",
"o	c #4A4A4A",
"p	c #0000DE",
"q	c #0808E7",
"r	c #3131C6",
"s	c #C6C6C6",
"t	c #101010",
"u	c #313139",
"v	c #EFEFF7",
"...............................",
"...............................",
"...............................",
".......+@......................",
"......#$%......................",
".....&*$=-.....................",
".....;$$$>.....................",
"....,')!~%@{]{]{]{]{]{]{]{{....",
"....^,/(_.]{{]{]{]{]{]{]{{@....",
"......:<:.@@@@@@@@@@@@@@@@.....",
".....-[$}......................",
".....|=$$1.....................",
"....:23345@6676767676767676....",
"....8990a76{{{{{{{{{{{{{{{:....",
"....66-b6.::::::::::::::::.....",
"......c$%......................",
".....{d$e@.....................",
".....f=$$g.@@@@@@@@@@@@@@@@....",
"..../h)i~j-&{{{{{{{{{{{{{&{....",
"...._k,l,.{]{{]{{]{{]{{]{{.....",
"......6mn......................",
"......[$}......................",
".....oe$${.....................",
"....n)ppqr.:::::::::::::::s....",
"....l0t9uvs{{{{{{{{{{{{{{{7....",
"....77-@@.7777777777777777.....",
"...............................",
"...............................",
"...............................",
"...............................",
"..............................."};
